<svg width="300" height="48" viewBox="0 0 300 48" fill="none" xmlns="http://www.w3.org/2000/svg">
<path d="M45.6911 34.275C31.5911 41.9775 17.4986 30.7725 3.39856 38.475C3.39856 28.3275 3.39856 18.1725 3.39856 8.02499C17.4986 3.12749 31.5911 17.1225 45.6911 12.225C45.6911 19.575 45.6911 26.925 45.6911 34.275Z" stroke="#0E0E10" stroke-miterlimit="10"/>
<path fill-rule="evenodd" clip-rule="evenodd" d="M45.6911 35.355C31.5911 39.0975 17.4986 33.6525 3.39856 37.395C3.39856 32.4675 3.39856 27.5325 3.39856 22.605C17.4986 20.2275 31.5911 27.0225 45.6911 24.645C45.6911 28.215 45.6911 31.785 45.6911 35.355Z" fill="#0E0E10"/>
<path d="M45.6911 35.355C31.5911 39.0975 17.4986 33.6525 3.39856 37.395C3.39856 32.4675 3.39856 27.5325 3.39856 22.605C17.4986 20.2275 31.5911 27.0225 45.6911 24.645C45.6911 28.215 45.6911 31.785 45.6911 35.355Z" stroke="#0E0E10" stroke-miterlimit="10"/>
<path d="M67.224 33.168C66.568 33.168 66.24 32.824 66.24 32.136V17.784H60.84C60.232 17.784 59.928 17.496 59.928 16.92C59.928 16.36 60.232 16.08 60.84 16.08H73.632C74.24 16.08 74.544 16.36 74.544 16.92C74.544 17.496 74.24 17.784 73.632 17.784H68.232V32.136C68.232 32.824 67.896 33.168 67.224 33.168ZM77.8543 33.168C77.2143 33.168 76.8943 32.832 76.8943 32.16V16.896C76.8943 16.24 77.2143 15.912 77.8543 15.912C78.5103 15.912 78.8383 16.24 78.8383 16.896V23.256C79.2223 22.552 79.7583 22.024 80.4463 21.672C81.1503 21.304 81.9343 21.12 82.7983 21.12C85.5663 21.12 86.9503 22.656 86.9503 25.728V32.16C86.9503 32.832 86.6303 33.168 85.9903 33.168C85.3343 33.168 85.0063 32.832 85.0063 32.16V25.848C85.0063 24.76 84.7903 23.968 84.3583 23.472C83.9423 22.96 83.2703 22.704 82.3423 22.704C81.2703 22.704 80.4143 23.04 79.7743 23.712C79.1503 24.368 78.8383 25.248 78.8383 26.352V32.16C78.8383 32.832 78.5103 33.168 77.8543 33.168ZM95.7909 33.216C93.9509 33.216 92.4949 32.68 91.4229 31.608C90.3509 30.52 89.8149 29.048 89.8149 27.192C89.8149 25.992 90.0549 24.936 90.5349 24.024C91.0149 23.096 91.6709 22.384 92.5029 21.888C93.3509 21.376 94.3269 21.12 95.4309 21.12C97.0149 21.12 98.2549 21.632 99.1509 22.656C100.047 23.664 100.495 25.056 100.495 26.832C100.495 27.328 100.215 27.576 99.6549 27.576H91.7109C91.7749 28.904 92.1589 29.92 92.8629 30.624C93.5669 31.312 94.5429 31.656 95.7909 31.656C96.3189 31.656 96.8549 31.592 97.3989 31.464C97.9429 31.32 98.4709 31.072 98.9829 30.72C99.3509 30.48 99.6549 30.432 99.8949 30.576C100.151 30.72 100.279 30.944 100.279 31.248C100.295 31.536 100.135 31.792 99.7989 32.016C99.2709 32.4 98.6389 32.696 97.9029 32.904C97.1829 33.112 96.4789 33.216 95.7909 33.216ZM95.4789 22.56C94.3749 22.56 93.5029 22.904 92.8629 23.592C92.2229 24.28 91.8469 25.184 91.7349 26.304H98.8149C98.7669 25.12 98.4549 24.2 97.8789 23.544C97.3189 22.888 96.5189 22.56 95.4789 22.56ZM110.744 33.168C110.088 33.168 109.76 32.824 109.76 32.136V17.088C109.76 16.416 110.096 16.08 110.768 16.08H116.456C118.28 16.08 119.672 16.52 120.632 17.4C121.608 18.28 122.096 19.536 122.096 21.168C122.096 22.784 121.608 24.04 120.632 24.936C119.672 25.816 118.28 26.256 116.456 26.256H111.728V32.136C111.728 32.824 111.4 33.168 110.744 33.168ZM111.728 24.6H116.216C118.84 24.6 120.152 23.456 120.152 21.168C120.152 18.864 118.84 17.712 116.216 17.712H111.728V24.6ZM128.992 33.216C127.856 33.216 126.872 32.968 126.04 32.472C125.208 31.976 124.56 31.28 124.096 30.384C123.648 29.472 123.424 28.4 123.424 27.168C123.424 25.936 123.648 24.872 124.096 23.976C124.56 23.064 125.208 22.36 126.04 21.864C126.872 21.368 127.856 21.12 128.992 21.12C130.112 21.12 131.088 21.368 131.92 21.864C132.768 22.36 133.416 23.064 133.864 23.976C134.328 24.872 134.56 25.936 134.56 27.168C134.56 28.4 134.328 29.472 133.864 30.384C133.416 31.28 132.768 31.976 131.92 32.472C131.088 32.968 130.112 33.216 128.992 33.216ZM128.992 31.656C130.08 31.656 130.952 31.272 131.608 30.504C132.264 29.72 132.592 28.608 132.592 27.168C132.592 25.712 132.264 24.6 131.608 23.832C130.952 23.064 130.08 22.68 128.992 22.68C127.888 22.68 127.008 23.064 126.352 23.832C125.712 24.6 125.392 25.712 125.392 27.168C125.392 28.608 125.712 29.72 126.352 30.504C127.008 31.272 127.888 31.656 128.992 31.656ZM141.032 33.216C139.88 33.216 139 32.872 138.392 32.184C137.784 31.48 137.48 30.464 137.48 29.136V16.896C137.48 16.24 137.8 15.912 138.44 15.912C139.096 15.912 139.424 16.24 139.424 16.896V28.992C139.424 30.704 140.104 31.56 141.464 31.56C141.608 31.56 141.736 31.552 141.848 31.536C141.96 31.52 142.072 31.512 142.184 31.512C142.36 31.496 142.48 31.536 142.544 31.632C142.624 31.728 142.664 31.92 142.664 32.208C142.664 32.752 142.392 33.064 141.848 33.144C141.72 33.176 141.584 33.192 141.44 33.192C141.296 33.208 141.16 33.216 141.032 33.216ZM145.542 18.528C144.694 18.528 144.27 18.128 144.27 17.328C144.27 16.544 144.694 16.152 145.542 16.152C146.39 16.152 146.814 16.544 146.814 17.328C146.814 18.128 146.39 18.528 145.542 18.528ZM145.542 33.12C144.902 33.12 144.582 32.768 144.582 32.064V22.248C144.582 21.56 144.902 21.216 145.542 21.216C146.198 21.216 146.526 21.56 146.526 22.248V32.064C146.526 32.768 146.198 33.12 145.542 33.12ZM154.096 33.216C153.376 33.216 152.648 33.128 151.912 32.952C151.192 32.76 150.52 32.456 149.896 32.04C149.608 31.864 149.464 31.64 149.464 31.368C149.48 31.08 149.592 30.856 149.8 30.696C150.008 30.536 150.272 30.536 150.592 30.696C151.216 31.08 151.816 31.352 152.392 31.512C152.984 31.656 153.568 31.728 154.144 31.728C155.056 31.728 155.744 31.56 156.208 31.224C156.672 30.888 156.904 30.432 156.904 29.856C156.904 29.408 156.752 29.056 156.448 28.8C156.144 28.528 155.664 28.32 155.008 28.176L152.824 27.696C150.84 27.264 149.848 26.24 149.848 24.624C149.848 23.568 150.264 22.72 151.096 22.08C151.944 21.44 153.048 21.12 154.408 21.12C155.096 21.12 155.76 21.216 156.4 21.408C157.04 21.584 157.616 21.872 158.128 22.272C158.4 22.464 158.52 22.696 158.488 22.968C158.456 23.24 158.328 23.456 158.104 23.616C157.896 23.76 157.64 23.736 157.336 23.544C156.856 23.224 156.368 22.992 155.872 22.848C155.376 22.688 154.888 22.608 154.408 22.608C153.512 22.608 152.832 22.784 152.368 23.136C151.904 23.488 151.672 23.952 151.672 24.528C151.672 25.424 152.264 26 153.448 26.256L155.632 26.712C156.656 26.936 157.432 27.296 157.96 27.792C158.488 28.272 158.752 28.928 158.752 29.76C158.752 30.832 158.328 31.68 157.48 32.304C156.632 32.912 155.504 33.216 154.096 33.216ZM162.675 33.168C162.035 33.168 161.715 32.832 161.715 32.16V16.896C161.715 16.24 162.035 15.912 162.675 15.912C163.331 15.912 163.659 16.24 163.659 16.896V23.256C164.043 22.552 164.579 22.024 165.267 21.672C165.971 21.304 166.755 21.12 167.619 21.12C170.387 21.12 171.771 22.656 171.771 25.728V32.16C171.771 32.832 171.451 33.168 170.811 33.168C170.155 33.168 169.827 32.832 169.827 32.16V25.848C169.827 24.76 169.611 23.968 169.179 23.472C168.763 22.96 168.091 22.704 167.163 22.704C166.091 22.704 165.235 23.04 164.595 23.712C163.971 24.368 163.659 25.248 163.659 26.352V32.16C163.659 32.832 163.331 33.168 162.675 33.168ZM186.391 33.216C185.255 33.216 184.271 32.968 183.439 32.472C182.607 31.976 181.959 31.28 181.495 30.384C181.047 29.472 180.823 28.4 180.823 27.168C180.823 25.936 181.047 24.872 181.495 23.976C181.959 23.064 182.607 22.36 183.439 21.864C184.271 21.368 185.255 21.12 186.391 21.12C187.511 21.12 188.487 21.368 189.319 21.864C190.167 22.36 190.815 23.064 191.263 23.976C191.727 24.872 191.959 25.936 191.959 27.168C191.959 28.4 191.727 29.472 191.263 30.384C190.815 31.28 190.167 31.976 189.319 32.472C188.487 32.968 187.511 33.216 186.391 33.216ZM186.391 31.656C187.479 31.656 188.351 31.272 189.007 30.504C189.663 29.72 189.991 28.608 189.991 27.168C189.991 25.712 189.663 24.6 189.007 23.832C188.351 23.064 187.479 22.68 186.391 22.68C185.287 22.68 184.407 23.064 183.751 23.832C183.111 24.6 182.791 25.712 182.791 27.168C182.791 28.608 183.111 29.72 183.751 30.504C184.407 31.272 185.287 31.656 186.391 31.656ZM195.839 33.168C195.199 33.168 194.879 32.832 194.879 32.16V22.152C194.879 21.496 195.191 21.168 195.815 21.168C196.455 21.168 196.775 21.496 196.775 22.152V23.328C197.159 22.592 197.703 22.04 198.407 21.672C199.111 21.304 199.903 21.12 200.783 21.12C203.551 21.12 204.935 22.656 204.935 25.728V32.16C204.935 32.832 204.615 33.168 203.975 33.168C203.319 33.168 202.991 32.832 202.991 32.16V25.848C202.991 24.76 202.775 23.968 202.343 23.472C201.927 22.96 201.255 22.704 200.327 22.704C199.255 22.704 198.399 23.04 197.759 23.712C197.135 24.368 196.823 25.248 196.823 26.352V32.16C196.823 32.832 196.495 33.168 195.839 33.168ZM222.867 33.24C220.995 33.24 219.411 32.888 218.115 32.184C216.835 31.48 215.859 30.48 215.187 29.184C214.515 27.888 214.179 26.352 214.179 24.576C214.179 22.784 214.523 21.24 215.211 19.944C215.899 18.632 216.891 17.624 218.187 16.92C219.483 16.2 221.035 15.84 222.843 15.84C223.739 15.84 224.635 15.952 225.531 16.176C226.443 16.384 227.299 16.744 228.099 17.256C228.451 17.464 228.651 17.744 228.699 18.096C228.763 18.432 228.715 18.752 228.555 19.056C228.395 19.36 228.155 19.576 227.835 19.704C227.515 19.816 227.163 19.76 226.779 19.536C226.171 19.184 225.555 18.928 224.931 18.768C224.307 18.608 223.611 18.528 222.843 18.528C221.051 18.528 219.691 19.048 218.763 20.088C217.851 21.128 217.395 22.624 217.395 24.576C217.395 26.544 217.867 28.04 218.811 29.064C219.755 30.088 221.155 30.6 223.011 30.6C223.539 30.6 224.075 30.56 224.619 30.48C225.179 30.384 225.731 30.248 226.275 30.072V26.136H223.635C222.803 26.136 222.387 25.752 222.387 24.984C222.387 24.232 222.803 23.856 223.635 23.856H227.595C228.427 23.856 228.843 24.272 228.843 25.104V30.936C228.843 31.672 228.555 32.144 227.979 32.352C227.275 32.608 226.467 32.824 225.555 33C224.643 33.16 223.747 33.24 222.867 33.24ZM233.603 18.864C233.043 18.864 232.603 18.728 232.283 18.456C231.979 18.168 231.827 17.776 231.827 17.28C231.827 16.768 231.979 16.376 232.283 16.104C232.603 15.832 233.043 15.696 233.603 15.696C234.787 15.696 235.379 16.224 235.379 17.28C235.379 18.336 234.787 18.864 233.603 18.864ZM233.603 33.168C233.123 33.168 232.755 33.024 232.499 32.736C232.243 32.448 232.115 32.048 232.115 31.536V22.728C232.115 21.64 232.611 21.096 233.603 21.096C234.611 21.096 235.115 21.64 235.115 22.728V31.536C235.115 32.048 234.987 32.448 234.731 32.736C234.475 33.024 234.099 33.168 233.603 33.168ZM243.608 33.24C240.504 33.24 238.952 31.704 238.952 28.632V23.52H237.704C236.904 23.52 236.504 23.144 236.504 22.392C236.504 21.64 236.904 21.264 237.704 21.264H238.952V19.08C238.952 18.072 239.456 17.568 240.464 17.568C241.456 17.568 241.952 18.072 241.952 19.08V21.264H244.496C245.296 21.264 245.696 21.64 245.696 22.392C245.696 23.144 245.296 23.52 244.496 23.52H241.952V28.464C241.952 29.232 242.12 29.808 242.456 30.192C242.792 30.576 243.336 30.768 244.088 30.768C244.36 30.768 244.6 30.744 244.808 30.696C245.016 30.648 245.2 30.616 245.36 30.6C245.552 30.584 245.712 30.648 245.84 30.792C245.968 30.92 246.032 31.192 246.032 31.608C246.032 31.928 245.976 32.216 245.864 32.472C245.768 32.712 245.584 32.88 245.312 32.976C245.104 33.04 244.832 33.096 244.496 33.144C244.16 33.208 243.864 33.24 243.608 33.24ZM249.267 33.192C248.243 33.192 247.731 32.664 247.731 31.608V17.472C247.731 16.416 248.243 15.888 249.267 15.888C250.291 15.888 250.803 16.416 250.803 17.472V23.136H259.515V17.472C259.515 16.416 260.027 15.888 261.051 15.888C262.075 15.888 262.587 16.416 262.587 17.472V31.608C262.587 32.664 262.075 33.192 261.051 33.192C260.027 33.192 259.515 32.664 259.515 31.608V25.704H250.803V31.608C250.803 32.664 250.291 33.192 249.267 33.192ZM270.253 33.24C267.373 33.24 265.933 31.624 265.933 28.392V22.584C265.933 21.576 266.429 21.072 267.421 21.072C268.429 21.072 268.933 21.576 268.933 22.584V28.44C268.933 29.272 269.101 29.888 269.437 30.288C269.773 30.688 270.309 30.888 271.045 30.888C271.845 30.888 272.501 30.616 273.013 30.072C273.525 29.512 273.781 28.776 273.781 27.864V22.584C273.781 21.576 274.277 21.072 275.269 21.072C276.277 21.072 276.781 21.576 276.781 22.584V31.656C276.781 32.68 276.293 33.192 275.317 33.192C274.341 33.192 273.853 32.68 273.853 31.656V31.248C273.069 32.576 271.869 33.24 270.253 33.24ZM286.672 33.24C285.808 33.24 285.04 33.056 284.368 32.688C283.696 32.304 283.192 31.792 282.856 31.152V31.656C282.856 32.68 282.368 33.192 281.392 33.192C280.4 33.192 279.904 32.68 279.904 31.656V17.4C279.904 16.392 280.4 15.888 281.392 15.888C282.4 15.888 282.904 16.392 282.904 17.4V22.992C283.256 22.4 283.76 21.928 284.416 21.576C285.088 21.208 285.84 21.024 286.672 21.024C287.712 21.024 288.616 21.272 289.384 21.768C290.152 22.264 290.752 22.968 291.184 23.88C291.616 24.776 291.832 25.856 291.832 27.12C291.832 28.368 291.616 29.456 291.184 30.384C290.752 31.296 290.144 32 289.36 32.496C288.592 32.992 287.696 33.24 286.672 33.24ZM285.832 30.96C286.728 30.96 287.448 30.64 287.992 30C288.536 29.344 288.808 28.384 288.808 27.12C288.808 25.84 288.536 24.888 287.992 24.264C287.448 23.624 286.728 23.304 285.832 23.304C284.936 23.304 284.216 23.624 283.672 24.264C283.128 24.888 282.856 25.84 282.856 27.12C282.856 28.384 283.128 29.344 283.672 30C284.216 30.64 284.936 30.96 285.832 30.96Z" fill="#0E0E10"/>
</svg>
