<svg width="320" height="70" viewBox="0 0 320 70" fill="none" xmlns="http://www.w3.org/2000/svg">
<rect x="0.5" y="0.5" width="319" height="69" rx="19.5" fill="#0E0E10" stroke="#F5F5F5"/>
<path d="M30.1411 43C29.4211 43 29.0611 42.64 29.0611 41.92V27.16C29.0611 26.44 29.4211 26.08 30.1411 26.08H35.8291C37.5731 26.08 38.9171 26.472 39.8611 27.256C40.8211 28.024 41.3011 29.104 41.3011 30.496C41.3011 31.424 41.0611 32.216 40.5811 32.872C40.1011 33.528 39.4371 34.008 38.5891 34.312C39.5651 34.568 40.3251 35.04 40.8691 35.728C41.4291 36.416 41.7091 37.288 41.7091 38.344C41.7091 39.848 41.2211 41 40.2451 41.8C39.2691 42.6 37.8931 43 36.1171 43H30.1411ZM30.9811 33.64H35.5411C38.0851 33.64 39.3571 32.648 39.3571 30.664C39.3571 28.664 38.0851 27.664 35.5411 27.664H30.9811V33.64ZM30.9811 41.416H35.9251C38.4851 41.416 39.7651 40.384 39.7651 38.32C39.7651 36.256 38.4851 35.224 35.9251 35.224H30.9811V41.416ZM50.2719 43.216C48.4319 43.216 46.9759 42.68 45.9039 41.608C44.8319 40.52 44.2959 39.048 44.2959 37.192C44.2959 35.992 44.5359 34.936 45.0159 34.024C45.4959 33.096 46.1519 32.384 46.9839 31.888C47.8319 31.376 48.8079 31.12 49.9119 31.12C51.4959 31.12 52.7359 31.632 53.6319 32.656C54.5279 33.664 54.9759 35.056 54.9759 36.832C54.9759 37.328 54.6959 37.576 54.1359 37.576H46.1919C46.2559 38.904 46.6399 39.92 47.3439 40.624C48.0479 41.312 49.0239 41.656 50.2719 41.656C50.7999 41.656 51.3359 41.592 51.8799 41.464C52.4239 41.32 52.9519 41.072 53.4639 40.72C53.8319 40.48 54.1359 40.432 54.3759 40.576C54.6319 40.72 54.7599 40.944 54.7599 41.248C54.7759 41.536 54.6159 41.792 54.2799 42.016C53.7519 42.4 53.1199 42.696 52.3839 42.904C51.6639 43.112 50.9599 43.216 50.2719 43.216ZM49.9599 32.56C48.8559 32.56 47.9839 32.904 47.3439 33.592C46.7039 34.28 46.3279 35.184 46.2159 36.304H53.2959C53.2479 35.12 52.9359 34.2 52.3599 33.544C51.7999 32.888 50.9999 32.56 49.9599 32.56ZM61.7253 43.216C61.0053 43.216 60.2773 43.128 59.5413 42.952C58.8213 42.76 58.1493 42.456 57.5253 42.04C57.2373 41.864 57.0933 41.64 57.0933 41.368C57.1093 41.08 57.2213 40.856 57.4293 40.696C57.6373 40.536 57.9013 40.536 58.2213 40.696C58.8453 41.08 59.4453 41.352 60.0213 41.512C60.6133 41.656 61.1973 41.728 61.7733 41.728C62.6853 41.728 63.3733 41.56 63.8373 41.224C64.3013 40.888 64.5333 40.432 64.5333 39.856C64.5333 39.408 64.3813 39.056 64.0773 38.8C63.7733 38.528 63.2933 38.32 62.6373 38.176L60.4533 37.696C58.4693 37.264 57.4773 36.24 57.4773 34.624C57.4773 33.568 57.8933 32.72 58.7253 32.08C59.5733 31.44 60.6773 31.12 62.0373 31.12C62.7253 31.12 63.3893 31.216 64.0293 31.408C64.6693 31.584 65.2453 31.872 65.7573 32.272C66.0293 32.464 66.1493 32.696 66.1173 32.968C66.0853 33.24 65.9573 33.456 65.7333 33.616C65.5253 33.76 65.2693 33.736 64.9653 33.544C64.4853 33.224 63.9973 32.992 63.5013 32.848C63.0053 32.688 62.5173 32.608 62.0373 32.608C61.1413 32.608 60.4613 32.784 59.9973 33.136C59.5333 33.488 59.3013 33.952 59.3013 34.528C59.3013 35.424 59.8933 36 61.0773 36.256L63.2613 36.712C64.2853 36.936 65.0613 37.296 65.5893 37.792C66.1173 38.272 66.3813 38.928 66.3813 39.76C66.3813 40.832 65.9573 41.68 65.1093 42.304C64.2613 42.912 63.1333 43.216 61.7253 43.216ZM73.9068 43.216C72.5308 43.216 71.4988 42.856 70.8108 42.136C70.1228 41.4 69.7788 40.344 69.7788 38.968V32.848H68.1708C67.6108 32.848 67.3308 32.592 67.3308 32.08C67.3308 31.584 67.6108 31.336 68.1708 31.336H69.7788V28.576C69.7788 27.92 70.1068 27.592 70.7628 27.592C71.4028 27.592 71.7228 27.92 71.7228 28.576V31.336H74.7468C75.3068 31.336 75.5868 31.584 75.5868 32.08C75.5868 32.592 75.3068 32.848 74.7468 32.848H71.7228V38.776C71.7228 39.688 71.9148 40.384 72.2988 40.864C72.6828 41.328 73.3068 41.56 74.1708 41.56C74.4748 41.56 74.7308 41.528 74.9388 41.464C75.1468 41.4 75.3308 41.368 75.4908 41.368C75.6348 41.352 75.7548 41.4 75.8508 41.512C75.9468 41.624 75.9948 41.816 75.9948 42.088C75.9948 42.28 75.9548 42.456 75.8748 42.616C75.8108 42.776 75.6908 42.888 75.5148 42.952C75.3228 43.016 75.0668 43.072 74.7468 43.12C74.4428 43.184 74.1628 43.216 73.9068 43.216ZM84.765 47.488C84.125 47.488 83.805 47.16 83.805 46.504V32.152C83.805 31.496 84.117 31.168 84.741 31.168C85.397 31.168 85.725 31.496 85.725 32.152V33.4C86.061 32.696 86.581 32.144 87.285 31.744C87.989 31.328 88.797 31.12 89.709 31.12C90.749 31.12 91.653 31.368 92.421 31.864C93.205 32.344 93.805 33.04 94.221 33.952C94.653 34.848 94.869 35.92 94.869 37.168C94.869 38.4 94.653 39.472 94.221 40.384C93.805 41.28 93.205 41.976 92.421 42.472C91.653 42.968 90.749 43.216 89.709 43.216C88.813 43.216 88.013 43.016 87.309 42.616C86.605 42.216 86.085 41.664 85.749 40.96V46.504C85.749 47.16 85.421 47.488 84.765 47.488ZM89.301 41.656C90.389 41.656 91.261 41.272 91.917 40.504C92.573 39.72 92.901 38.608 92.901 37.168C92.901 35.712 92.573 34.6 91.917 33.832C91.261 33.064 90.389 32.68 89.301 32.68C88.213 32.68 87.341 33.064 86.685 33.832C86.029 34.6 85.701 35.712 85.701 37.168C85.701 38.608 86.029 39.72 86.685 40.504C87.341 41.272 88.213 41.656 89.301 41.656ZM98.7811 43.168C98.1251 43.168 97.7971 42.832 97.7971 42.16V32.152C97.7971 31.496 98.1091 31.168 98.7331 31.168C99.3731 31.168 99.6931 31.496 99.6931 32.152V33.424C100.013 32.688 100.509 32.128 101.181 31.744C101.853 31.344 102.653 31.128 103.581 31.096C104.093 31.048 104.365 31.304 104.397 31.864C104.445 32.424 104.157 32.736 103.533 32.8L103.149 32.848C102.045 32.944 101.205 33.296 100.629 33.904C100.053 34.496 99.7651 35.312 99.7651 36.352V42.16C99.7651 42.832 99.4371 43.168 98.7811 43.168ZM111.106 43.216C109.97 43.216 108.986 42.968 108.154 42.472C107.322 41.976 106.674 41.28 106.21 40.384C105.762 39.472 105.538 38.4 105.538 37.168C105.538 35.936 105.762 34.872 106.21 33.976C106.674 33.064 107.322 32.36 108.154 31.864C108.986 31.368 109.97 31.12 111.106 31.12C112.226 31.12 113.202 31.368 114.034 31.864C114.882 32.36 115.53 33.064 115.978 33.976C116.442 34.872 116.674 35.936 116.674 37.168C116.674 38.4 116.442 39.472 115.978 40.384C115.53 41.28 114.882 41.976 114.034 42.472C113.202 42.968 112.226 43.216 111.106 43.216ZM111.106 41.656C112.194 41.656 113.066 41.272 113.722 40.504C114.378 39.72 114.706 38.608 114.706 37.168C114.706 35.712 114.378 34.6 113.722 33.832C113.066 33.064 112.194 32.68 111.106 32.68C110.002 32.68 109.122 33.064 108.466 33.832C107.826 34.6 107.506 35.712 107.506 37.168C107.506 38.608 107.826 39.72 108.466 40.504C109.122 41.272 110.002 41.656 111.106 41.656ZM121.061 43.168C120.421 43.168 120.101 42.832 120.101 42.16V32.848H118.565C118.005 32.848 117.725 32.592 117.725 32.08C117.725 31.584 118.005 31.336 118.565 31.336H120.101V30.928C120.101 27.952 121.541 26.344 124.421 26.104L125.141 26.032C125.445 26 125.669 26.056 125.813 26.2C125.957 26.344 126.029 26.52 126.029 26.728C126.029 26.92 125.973 27.104 125.861 27.28C125.765 27.44 125.621 27.528 125.429 27.544L124.709 27.592C123.765 27.656 123.085 27.952 122.669 28.48C122.253 29.008 122.045 29.744 122.045 30.688V31.336H128.285C128.925 31.336 129.245 31.68 129.245 32.368V42.064C129.245 42.768 128.925 43.12 128.285 43.12C127.629 43.12 127.301 42.768 127.301 42.064V32.848H122.045V42.16C122.045 42.832 121.717 43.168 121.061 43.168ZM128.309 28.528C127.477 28.528 127.061 28.128 127.061 27.328C127.061 26.544 127.477 26.152 128.309 26.152C129.141 26.152 129.557 26.544 129.557 27.328C129.557 28.128 129.141 28.528 128.309 28.528ZM136.435 43.216C135.283 43.216 134.403 42.872 133.795 42.184C133.187 41.48 132.883 40.464 132.883 39.136V26.896C132.883 26.24 133.203 25.912 133.843 25.912C134.499 25.912 134.827 26.24 134.827 26.896V38.992C134.827 40.704 135.507 41.56 136.867 41.56C137.011 41.56 137.139 41.552 137.251 41.536C137.363 41.52 137.475 41.512 137.587 41.512C137.763 41.496 137.883 41.536 137.947 41.632C138.027 41.728 138.067 41.92 138.067 42.208C138.067 42.752 137.795 43.064 137.251 43.144C137.123 43.176 136.987 43.192 136.843 43.192C136.699 43.208 136.563 43.216 136.435 43.216ZM145.123 43.216C143.283 43.216 141.827 42.68 140.755 41.608C139.683 40.52 139.147 39.048 139.147 37.192C139.147 35.992 139.387 34.936 139.867 34.024C140.347 33.096 141.003 32.384 141.835 31.888C142.683 31.376 143.659 31.12 144.763 31.12C146.347 31.12 147.587 31.632 148.483 32.656C149.379 33.664 149.827 35.056 149.827 36.832C149.827 37.328 149.547 37.576 148.987 37.576H141.043C141.107 38.904 141.491 39.92 142.195 40.624C142.899 41.312 143.875 41.656 145.123 41.656C145.651 41.656 146.187 41.592 146.731 41.464C147.275 41.32 147.803 41.072 148.315 40.72C148.683 40.48 148.987 40.432 149.227 40.576C149.483 40.72 149.611 40.944 149.611 41.248C149.627 41.536 149.467 41.792 149.131 42.016C148.603 42.4 147.971 42.696 147.235 42.904C146.515 43.112 145.811 43.216 145.123 43.216ZM144.811 32.56C143.707 32.56 142.835 32.904 142.195 33.592C141.555 34.28 141.179 35.184 141.067 36.304H148.147C148.099 35.12 147.787 34.2 147.211 33.544C146.651 32.888 145.851 32.56 144.811 32.56ZM156.577 43.216C155.857 43.216 155.129 43.128 154.393 42.952C153.673 42.76 153.001 42.456 152.377 42.04C152.089 41.864 151.945 41.64 151.945 41.368C151.961 41.08 152.073 40.856 152.281 40.696C152.489 40.536 152.753 40.536 153.073 40.696C153.697 41.08 154.297 41.352 154.873 41.512C155.465 41.656 156.049 41.728 156.625 41.728C157.537 41.728 158.225 41.56 158.689 41.224C159.153 40.888 159.385 40.432 159.385 39.856C159.385 39.408 159.233 39.056 158.929 38.8C158.625 38.528 158.145 38.32 157.489 38.176L155.305 37.696C153.321 37.264 152.329 36.24 152.329 34.624C152.329 33.568 152.745 32.72 153.577 32.08C154.425 31.44 155.529 31.12 156.889 31.12C157.577 31.12 158.241 31.216 158.881 31.408C159.521 31.584 160.097 31.872 160.609 32.272C160.881 32.464 161.001 32.696 160.969 32.968C160.937 33.24 160.809 33.456 160.585 33.616C160.377 33.76 160.121 33.736 159.817 33.544C159.337 33.224 158.849 32.992 158.353 32.848C157.857 32.688 157.369 32.608 156.889 32.608C155.993 32.608 155.313 32.784 154.849 33.136C154.385 33.488 154.153 33.952 154.153 34.528C154.153 35.424 154.745 36 155.929 36.256L158.113 36.712C159.137 36.936 159.913 37.296 160.441 37.792C160.969 38.272 161.233 38.928 161.233 39.76C161.233 40.832 160.809 41.68 159.961 42.304C159.113 42.912 157.985 43.216 156.577 43.216Z" fill="#F5F5F5"/>
<path d="M299.095 31.1553L290.701 29.9691L286.949 22.5722C286.846 22.3697 286.678 22.2057 286.47 22.1061C285.947 21.8554 285.312 22.0643 285.051 22.5722L281.299 29.9691L272.905 31.1553C272.674 31.1875 272.462 31.2936 272.3 31.4543C272.104 31.65 271.996 31.9134 272 32.1864C272.004 32.4595 272.119 32.7199 272.32 32.9105L278.393 38.668L276.958 46.7978C276.925 46.987 276.946 47.1815 277.02 47.3593C277.095 47.5371 277.219 47.6912 277.378 47.8039C277.538 47.9167 277.727 47.9837 277.924 47.9974C278.121 48.011 278.318 47.9708 278.492 47.8812L286 44.0429L293.508 47.8812C293.713 47.9873 293.951 48.0226 294.179 47.984C294.754 47.8876 295.141 47.3572 295.042 46.7978L293.607 38.668L299.68 32.9105C299.845 32.753 299.955 32.5473 299.988 32.3223C300.077 31.7597 299.674 31.2389 299.095 31.1553Z" fill="#F5F5F5"/>
</svg>
