<svg width="320" height="70" viewBox="0 0 320 70" fill="none" xmlns="http://www.w3.org/2000/svg">
<rect x="0.5" y="0.5" width="319" height="69" rx="19.5" fill="#0E0E10" stroke="#F5F5F5"/>
<path d="M30.1171 43.168C29.4131 43.168 29.0611 42.808 29.0611 42.088V27.16C29.0611 26.44 29.4211 26.08 30.1411 26.08H38.8531C39.4131 26.08 39.6931 26.352 39.6931 26.896C39.6931 27.456 39.4131 27.736 38.8531 27.736H31.0291V33.64H38.3491C38.9251 33.64 39.2131 33.912 39.2131 34.456C39.2131 35.016 38.9251 35.296 38.3491 35.296H31.0291V42.088C31.0291 42.808 30.7251 43.168 30.1171 43.168ZM43.3509 28.528C42.5029 28.528 42.0789 28.128 42.0789 27.328C42.0789 26.544 42.5029 26.152 43.3509 26.152C44.1989 26.152 44.6229 26.544 44.6229 27.328C44.6229 28.128 44.1989 28.528 43.3509 28.528ZM43.3509 43.12C42.7109 43.12 42.3909 42.768 42.3909 42.064V32.248C42.3909 31.56 42.7109 31.216 43.3509 31.216C44.0069 31.216 44.3349 31.56 44.3349 32.248V42.064C44.3349 42.768 44.0069 43.12 43.3509 43.12ZM48.929 43.168C48.289 43.168 47.969 42.832 47.969 42.16V32.152C47.969 31.496 48.281 31.168 48.905 31.168C49.545 31.168 49.865 31.496 49.865 32.152V33.328C50.249 32.592 50.793 32.04 51.497 31.672C52.201 31.304 52.993 31.12 53.873 31.12C56.641 31.12 58.025 32.656 58.025 35.728V42.16C58.025 42.832 57.705 43.168 57.065 43.168C56.409 43.168 56.081 42.832 56.081 42.16V35.848C56.081 34.76 55.865 33.968 55.433 33.472C55.017 32.96 54.345 32.704 53.417 32.704C52.345 32.704 51.489 33.04 50.849 33.712C50.225 34.368 49.913 35.248 49.913 36.352V42.16C49.913 42.832 49.585 43.168 48.929 43.168ZM66.0496 43.216C65.0096 43.216 64.0976 42.968 63.3136 42.472C62.5456 41.976 61.9456 41.28 61.5136 40.384C61.0976 39.472 60.8896 38.4 60.8896 37.168C60.8896 35.92 61.0976 34.848 61.5136 33.952C61.9456 33.04 62.5456 32.344 63.3136 31.864C64.0976 31.368 65.0096 31.12 66.0496 31.12C66.9616 31.12 67.7616 31.32 68.4496 31.72C69.1536 32.12 69.6736 32.672 70.0096 33.376V26.896C70.0096 26.24 70.3376 25.912 70.9936 25.912C71.6336 25.912 71.9536 26.24 71.9536 26.896V42.16C71.9536 42.832 71.6336 43.168 70.9936 43.168C70.3536 43.168 70.0336 42.832 70.0336 42.16V40.912C69.6816 41.632 69.1536 42.2 68.4496 42.616C67.7616 43.016 66.9616 43.216 66.0496 43.216ZM66.4576 41.656C67.5456 41.656 68.4176 41.272 69.0736 40.504C69.7296 39.72 70.0576 38.608 70.0576 37.168C70.0576 35.712 69.7296 34.6 69.0736 33.832C68.4176 33.064 67.5456 32.68 66.4576 32.68C65.3536 32.68 64.4736 33.064 63.8176 33.832C63.1776 34.6 62.8576 35.712 62.8576 37.168C62.8576 38.608 63.1776 39.72 63.8176 40.504C64.4736 41.272 65.3536 41.656 66.4576 41.656ZM86.7333 43.216C85.5653 43.216 84.5573 42.968 83.7093 42.472C82.8613 41.96 82.2053 41.248 81.7413 40.336C81.2933 39.408 81.0693 38.328 81.0693 37.096C81.0693 35.24 81.5733 33.784 82.5813 32.728C83.5893 31.656 84.9733 31.12 86.7333 31.12C87.3093 31.12 87.9093 31.216 88.5333 31.408C89.1573 31.584 89.7253 31.88 90.2373 32.296C90.5093 32.488 90.6213 32.728 90.5733 33.016C90.5413 33.304 90.4053 33.52 90.1653 33.664C89.9413 33.808 89.6773 33.776 89.3733 33.568C88.9413 33.248 88.5093 33.024 88.0773 32.896C87.6613 32.768 87.2533 32.704 86.8533 32.704C85.6373 32.704 84.7013 33.088 84.0453 33.856C83.3893 34.608 83.0613 35.696 83.0613 37.12C83.0613 38.512 83.3893 39.616 84.0453 40.432C84.7013 41.232 85.6373 41.632 86.8533 41.632C87.2533 41.632 87.6613 41.568 88.0773 41.44C88.5093 41.312 88.9413 41.088 89.3733 40.768C89.6773 40.56 89.9413 40.536 90.1653 40.696C90.3893 40.84 90.5093 41.056 90.5253 41.344C90.5573 41.632 90.4453 41.864 90.1893 42.04C89.6773 42.456 89.1173 42.76 88.5093 42.952C87.9013 43.128 87.3093 43.216 86.7333 43.216ZM97.5123 43.216C96.3763 43.216 95.3923 42.968 94.5603 42.472C93.7283 41.976 93.0803 41.28 92.6163 40.384C92.1683 39.472 91.9443 38.4 91.9443 37.168C91.9443 35.936 92.1683 34.872 92.6163 33.976C93.0803 33.064 93.7283 32.36 94.5603 31.864C95.3923 31.368 96.3763 31.12 97.5123 31.12C98.6323 31.12 99.6083 31.368 100.44 31.864C101.288 32.36 101.936 33.064 102.384 33.976C102.848 34.872 103.08 35.936 103.08 37.168C103.08 38.4 102.848 39.472 102.384 40.384C101.936 41.28 101.288 41.976 100.44 42.472C99.6083 42.968 98.6323 43.216 97.5123 43.216ZM97.5123 41.656C98.6003 41.656 99.4723 41.272 100.128 40.504C100.784 39.72 101.112 38.608 101.112 37.168C101.112 35.712 100.784 34.6 100.128 33.832C99.4723 33.064 98.6003 32.68 97.5123 32.68C96.4083 32.68 95.5283 33.064 94.8723 33.832C94.2323 34.6 93.9123 35.712 93.9123 37.168C93.9123 38.608 94.2323 39.72 94.8723 40.504C95.5283 41.272 96.4083 41.656 97.5123 41.656ZM110.44 43.216C109.4 43.216 108.488 42.968 107.704 42.472C106.936 41.976 106.336 41.28 105.904 40.384C105.488 39.472 105.28 38.4 105.28 37.168C105.28 35.92 105.488 34.848 105.904 33.952C106.336 33.04 106.936 32.344 107.704 31.864C108.488 31.368 109.4 31.12 110.44 31.12C111.352 31.12 112.152 31.32 112.84 31.72C113.544 32.12 114.064 32.672 114.4 33.376V26.896C114.4 26.24 114.728 25.912 115.384 25.912C116.024 25.912 116.344 26.24 116.344 26.896V42.16C116.344 42.832 116.024 43.168 115.384 43.168C114.744 43.168 114.424 42.832 114.424 42.16V40.912C114.072 41.632 113.544 42.2 112.84 42.616C112.152 43.016 111.352 43.216 110.44 43.216ZM110.848 41.656C111.936 41.656 112.808 41.272 113.464 40.504C114.12 39.72 114.448 38.608 114.448 37.168C114.448 35.712 114.12 34.6 113.464 33.832C112.808 33.064 111.936 32.68 110.848 32.68C109.744 32.68 108.864 33.064 108.208 33.832C107.568 34.6 107.248 35.712 107.248 37.168C107.248 38.608 107.568 39.72 108.208 40.504C108.864 41.272 109.744 41.656 110.848 41.656ZM125.248 43.216C123.408 43.216 121.952 42.68 120.88 41.608C119.808 40.52 119.272 39.048 119.272 37.192C119.272 35.992 119.512 34.936 119.992 34.024C120.472 33.096 121.128 32.384 121.96 31.888C122.808 31.376 123.784 31.12 124.888 31.12C126.472 31.12 127.712 31.632 128.608 32.656C129.504 33.664 129.952 35.056 129.952 36.832C129.952 37.328 129.672 37.576 129.112 37.576H121.168C121.232 38.904 121.616 39.92 122.32 40.624C123.024 41.312 124 41.656 125.248 41.656C125.776 41.656 126.312 41.592 126.856 41.464C127.4 41.32 127.928 41.072 128.44 40.72C128.808 40.48 129.112 40.432 129.352 40.576C129.608 40.72 129.736 40.944 129.736 41.248C129.752 41.536 129.592 41.792 129.256 42.016C128.728 42.4 128.096 42.696 127.36 42.904C126.64 43.112 125.936 43.216 125.248 43.216ZM124.936 32.56C123.832 32.56 122.96 32.904 122.32 33.592C121.68 34.28 121.304 35.184 121.192 36.304H128.272C128.224 35.12 127.912 34.2 127.336 33.544C126.776 32.888 125.976 32.56 124.936 32.56ZM133.75 43.168C133.094 43.168 132.766 42.832 132.766 42.16V32.152C132.766 31.496 133.078 31.168 133.702 31.168C134.342 31.168 134.662 31.496 134.662 32.152V33.424C134.982 32.688 135.478 32.128 136.15 31.744C136.822 31.344 137.622 31.128 138.55 31.096C139.062 31.048 139.334 31.304 139.366 31.864C139.414 32.424 139.126 32.736 138.502 32.8L138.118 32.848C137.014 32.944 136.174 33.296 135.598 33.904C135.022 34.496 134.734 35.312 134.734 36.352V42.16C134.734 42.832 134.406 43.168 133.75 43.168ZM145.186 43.216C144.466 43.216 143.738 43.128 143.002 42.952C142.282 42.76 141.61 42.456 140.986 42.04C140.698 41.864 140.554 41.64 140.554 41.368C140.57 41.08 140.682 40.856 140.89 40.696C141.098 40.536 141.362 40.536 141.682 40.696C142.306 41.08 142.906 41.352 143.482 41.512C144.074 41.656 144.658 41.728 145.234 41.728C146.146 41.728 146.834 41.56 147.298 41.224C147.762 40.888 147.994 40.432 147.994 39.856C147.994 39.408 147.842 39.056 147.538 38.8C147.234 38.528 146.754 38.32 146.098 38.176L143.914 37.696C141.93 37.264 140.938 36.24 140.938 34.624C140.938 33.568 141.354 32.72 142.186 32.08C143.034 31.44 144.138 31.12 145.498 31.12C146.186 31.12 146.85 31.216 147.49 31.408C148.13 31.584 148.706 31.872 149.218 32.272C149.49 32.464 149.61 32.696 149.578 32.968C149.546 33.24 149.418 33.456 149.194 33.616C148.986 33.76 148.73 33.736 148.426 33.544C147.946 33.224 147.458 32.992 146.962 32.848C146.466 32.688 145.978 32.608 145.498 32.608C144.602 32.608 143.922 32.784 143.458 33.136C142.994 33.488 142.762 33.952 142.762 34.528C142.762 35.424 143.354 36 144.538 36.256L146.722 36.712C147.746 36.936 148.522 37.296 149.05 37.792C149.578 38.272 149.842 38.928 149.842 39.76C149.842 40.832 149.418 41.68 148.57 42.304C147.722 42.912 146.594 43.216 145.186 43.216Z" fill="#F5F5F5"/>
<path d="M294.22 32.1386H276.696C276.312 32.1386 276 32.4558 276 32.847V36.1529C276 36.5441 276.312 36.8613 276.696 36.8613H294.22V39.5803C294.22 40.8426 295.72 41.4747 296.598 40.5822L301.592 35.5018C302.136 34.9485 302.136 34.0514 301.592 33.4982L296.598 28.4178C295.72 27.5253 294.22 28.1574 294.22 29.4197V32.1386Z" fill="#F5F5F5"/>
</svg>
