<svg width="29" height="28" fill="none" xmlns="http://www.w3.org/2000/svg"><path fill-rule="evenodd" clip-rule="evenodd" d="M14.95 0C7.187 0 .899 6.288.899 14.05c0 6.218 4.022 11.47 9.607 13.331.703.123.966-.299.966-.667 0-.334-.018-1.44-.018-2.617-3.53.65-4.443-.86-4.724-1.651-.158-.404-.843-1.651-1.44-1.985-.492-.263-1.195-.913-.018-.93 1.107-.018 1.897 1.018 2.16 1.44 1.265 2.125 3.285 1.527 4.093 1.159.123-.914.492-1.528.895-1.88-3.126-.35-6.393-1.563-6.393-6.937 0-1.528.545-2.793 1.44-3.776-.14-.351-.632-1.792.141-3.724 0 0 1.177-.368 3.864 1.44a13.037 13.037 0 0 1 3.513-.474c1.194 0 2.388.158 3.512.475 2.688-1.827 3.864-1.44 3.864-1.44.773 1.931.281 3.372.14 3.723.896.983 1.44 2.23 1.44 3.776 0 5.392-3.283 6.586-6.41 6.937.51.44.949 1.282.949 2.6 0 1.879-.018 3.39-.018 3.864 0 .369.264.808.966.667A14.074 14.074 0 0 0 29 14.051C29 6.288 22.712 0 14.95 0Z" fill="#F5F5F5"/></svg>