<svg width="13" height="16" fill="none" xmlns="http://www.w3.org/2000/svg"><path d="M6.5 0a6.622 6.622 0 0 0-4.594 1.843A6.19 6.19 0 0 0 0 6.286a6.09 6.09 0 0 0 1.31 3.771s.177.226.206.258L6.5 16l4.987-5.687c.026-.03.204-.256.204-.256v-.002A6.087 6.087 0 0 0 13 6.285a6.19 6.19 0 0 0-1.906-4.442A6.622 6.622 0 0 0 6.5 0Zm0 8.571c-.467 0-.924-.134-1.313-.385a2.304 2.304 0 0 1-.87-1.026 2.216 2.216 0 0 1-.135-1.32c.091-.444.316-.85.647-1.17a2.39 2.39 0 0 1 1.21-.626 2.439 2.439 0 0 1 1.366.13c.431.173.8.466 1.06.842.26.376.399.818.399 1.27-.001.606-.25 1.187-.694 1.615a2.408 2.408 0 0 1-1.67.67Z" fill="#000"/></svg>