<svg width="29" height="28" viewBox="0 0 29 28" fill="none" xmlns="http://www.w3.org/2000/svg">
<path fill-rule="evenodd" clip-rule="evenodd" d="M14.9495 0C7.18656 0 0.898926 6.28764 0.898926 14.0506C0.898926 20.268 4.92091 25.5194 10.506 27.3811C11.2085 27.504 11.472 27.0825 11.472 26.7137C11.472 26.38 11.4544 25.2735 11.4544 24.0968C7.92422 24.7466 7.01093 23.2362 6.72992 22.4458C6.57185 22.0419 5.88688 20.7949 5.28973 20.4612C4.79796 20.1977 4.09543 19.5479 5.27217 19.5303C6.37865 19.5128 7.169 20.549 7.43245 20.9705C8.697 23.0957 10.7168 22.4985 11.5247 22.1297C11.6476 21.2164 12.0165 20.6017 12.4204 20.2504C9.29415 19.8991 6.02739 18.6873 6.02739 13.3129C6.02739 11.7849 6.57185 10.5204 7.46758 9.53684C7.32707 9.18557 6.8353 7.74539 7.60808 5.81343C7.60808 5.81343 8.78482 5.4446 11.472 7.25362C12.596 6.93748 13.7903 6.77941 14.9846 6.77941C16.1789 6.77941 17.3732 6.93748 18.4973 7.25362C21.1845 5.42704 22.3612 5.81343 22.3612 5.81343C23.134 7.74539 22.6422 9.18557 22.5017 9.53684C23.3974 10.5204 23.9419 11.7674 23.9419 13.3129C23.9419 18.7048 20.6576 19.8991 17.5313 20.2504C18.0406 20.6895 18.4797 21.5325 18.4797 22.8498C18.4797 24.729 18.4622 26.2395 18.4622 26.7137C18.4622 27.0825 18.7256 27.5216 19.4281 27.3811C22.2174 26.4394 24.6411 24.6467 26.3582 22.2554C28.0753 19.8641 28.9993 16.9945 29.0001 14.0506C29.0001 6.28764 22.7125 0 14.9495 0Z" fill="#F5F5F5"/>
</svg>
